<svg xmlns="http://www.w3.org/2000/svg" xmlns:xlink="http://www.w3.org/1999/xlink" width="1000" zoomAndPan="magnify" viewBox="0 0 750 749.999995" height="1000" preserveAspectRatio="xMidYMid meet" version="1.0"><defs><clipPath id="ba59763870"><path d="M 0 128.90625 L 750 128.90625 L 750 621.09375 L 0 621.09375 Z M 0 128.90625 " clip-rule="nonzero"/></clipPath><clipPath id="7eb589f37e"><path d="M 425.832031 128.90625 C 434.058594 128.90625 442.335938 128.90625 450.546875 128.90625 C 516.003906 137.125 556.910156 164.492188 575.542969 209.265625 C 684.671875 203.296875 764.015625 287.960938 715.660156 371.058594 C 731.742188 388.519531 745.15625 408.050781 750 434.265625 C 750 441.773438 750 449.265625 750 456.773438 C 735.5625 523.492188 673.4375 568.578125 571.445312 556.441406 C 545.203125 590.699219 498.507812 625.003906 425.847656 620.730469 C 388.292969 618.484375 362.164062 605.457031 339.285156 589.628906 C 315.191406 602.785156 289.097656 613.109375 251.394531 613.222656 C 164.164062 613.417969 105.8125 562.734375 104.398438 493.214844 C 48.320312 476.953125 10.339844 446.59375 0 394.648438 C 0 387.140625 0 379.617188 0 372.140625 C 11.414062 320.667969 47.328125 288.332031 107.128906 274.625 C 103.535156 187.792969 223.152344 133.535156 321.417969 171.789062 C 344.816406 152.871094 377.917969 132.238281 425.832031 128.90625 Z M 425.832031 128.90625 " clip-rule="nonzero"/></clipPath></defs><g clip-path="url(#ba59763870)"><g clip-path="url(#7eb589f37e)"><path fill="#000000" d="M 0 128.90625 L 749.816406 128.90625 L 749.816406 621.09375 L 0 621.09375 Z M 0 128.90625 " fill-opacity="1" fill-rule="nonzero"/></g></g></svg>