<svg xmlns="http://www.w3.org/2000/svg" xmlns:xlink="http://www.w3.org/1999/xlink" width="1000" zoomAndPan="magnify" viewBox="0 0 750 749.999995" height="1000" preserveAspectRatio="xMidYMid meet" version="1.0"><defs><clipPath id="dfe81a67f4"><path d="M 89.695312 2.964844 L 660.304688 2.964844 L 660.304688 747.425781 L 89.695312 747.425781 Z M 89.695312 2.964844 " clip-rule="nonzero"/></clipPath><clipPath id="6ac63257be"><path d="M 280 19.441406 C 309.160156 9.492188 342.511719 2.964844 375.152344 2.964844 C 407.796875 2.964844 439.207031 8.558594 468.148438 18.507812 C 468.765625 18.816406 469.382812 18.816406 470 19.128906 C 578.699219 58.921875 658.761719 164 660.304688 287.726562 L 660.304688 747.035156 L 89.695312 747.035156 L 89.695312 288.066406 C 91.238281 163.378906 170.066406 58.300781 280 19.441406 Z M 280 19.441406 " clip-rule="nonzero"/></clipPath></defs><g clip-path="url(#dfe81a67f4)"><g clip-path="url(#6ac63257be)"><path fill="#000000" d="M 89.695312 2.964844 L 660.304688 2.964844 L 660.304688 747.425781 L 89.695312 747.425781 Z M 89.695312 2.964844 " fill-opacity="1" fill-rule="nonzero"/></g></g></svg>