<svg xmlns="http://www.w3.org/2000/svg" xmlns:xlink="http://www.w3.org/1999/xlink" width="1000" zoomAndPan="magnify" viewBox="0 0 750 749.999995" height="1000" preserveAspectRatio="xMidYMid meet" version="1.0"><defs><clipPath id="4734d0e694"><path d="M 73.761719 2.964844 L 676.238281 2.964844 L 676.238281 747 L 73.761719 747 Z M 73.761719 2.964844 " clip-rule="nonzero"/></clipPath><clipPath id="0952fa1e84"><path d="M 274.695312 19.441406 C 305.484375 9.492188 340.699219 2.964844 375.164062 2.964844 C 409.628906 2.964844 442.792969 8.558594 473.351562 18.507812 C 474.003906 18.816406 474.652344 18.816406 475.304688 19.128906 C 590.078125 58.921875 674.613281 164 676.238281 287.726562 L 676.238281 747.035156 L 73.761719 747.035156 L 73.761719 288.066406 C 75.386719 163.378906 158.625 58.300781 274.695312 19.441406 Z M 274.695312 19.441406 " clip-rule="nonzero"/></clipPath></defs><g clip-path="url(#4734d0e694)"><g clip-path="url(#0952fa1e84)"><path fill="#000000" d="M 73.761719 2.964844 L 676.238281 2.964844 L 676.238281 746.640625 L 73.761719 746.640625 Z M 73.761719 2.964844 " fill-opacity="1" fill-rule="nonzero"/></g></g></svg>