<svg xmlns="http://www.w3.org/2000/svg" xmlns:xlink="http://www.w3.org/1999/xlink" width="1000" zoomAndPan="magnify" viewBox="0 0 750 749.999995" height="1000" preserveAspectRatio="xMidYMid meet" version="1.0"><defs><clipPath id="566c5b3b2d"><path d="M 10.289062 55 L 740 55 L 740 694.121094 L 10.289062 694.121094 Z M 10.289062 55 " clip-rule="nonzero"/></clipPath><clipPath id="9a7ffbfb67"><path d="M 39.207031 157.785156 C -19.9375 255.222656 21.730469 350.058594 74.09375 400.394531 L 380.246094 694.121094 L 679.941406 401.445312 C 728.640625 347.296875 747.308594 289.863281 736.941406 225.90625 C 722.621094 137.4375 649.714844 68.800781 559.65625 58.996094 C 504.417969 53.050781 451.058594 68.679688 409.417969 103.289062 C 398.207031 112.597656 388.1875 123.007812 379.457031 134.320312 C 369.097656 121.441406 356.949219 109.65625 343.210938 99.210938 C 295.320312 62.816406 234.363281 48.367188 175.808594 59.605469 C 120.351562 70.320312 70.570312 106.089844 39.207031 157.785156 Z M 39.207031 157.785156 " clip-rule="nonzero"/></clipPath></defs><g clip-path="url(#566c5b3b2d)"><g clip-path="url(#9a7ffbfb67)"><path fill="#000000" d="M 10.289062 55.878906 L 740.78125 55.878906 L 740.78125 694.121094 L 10.289062 694.121094 Z M 10.289062 55.878906 " fill-opacity="1" fill-rule="nonzero"/></g></g></svg>