<svg xmlns="http://www.w3.org/2000/svg" xmlns:xlink="http://www.w3.org/1999/xlink" width="1000" zoomAndPan="magnify" viewBox="0 0 750 749.999995" height="1000" preserveAspectRatio="xMidYMid meet" version="1.0"><defs><clipPath id="7e6dc0962f"><path d="M 17.175781 42 L 750 42 L 750 721.601562 L 17.175781 721.601562 Z M 17.175781 42 " clip-rule="nonzero"/></clipPath><clipPath id="50a466ef90"><path d="M 715.652344 279.613281 C 650.515625 153.007812 519.273438 60.199219 379.429688 45.617188 C 265.308594 28.117188 190.226562 81.886719 128.90625 155.921875 C 67.582031 229.957031 34.976562 324.335938 21.816406 419.535156 C 14.859375 469.789062 13.441406 523.109375 34.753906 569.175781 C 61.75 627.578125 120.753906 664.746094 180.804688 687.855469 C 342.335938 750 540.660156 725.917969 666.371094 606.863281 C 705.707031 569.625 737.9375 522.957031 749.457031 470.011719 C 763.441406 405.773438 745.714844 338.09375 715.652344 279.613281 Z M 715.652344 279.613281 " clip-rule="nonzero"/></clipPath></defs><g clip-path="url(#7e6dc0962f)"><g clip-path="url(#50a466ef90)"><path fill="#000000" d="M 13.441406 28.117188 L 763.71875 28.117188 L 763.71875 750 L 13.441406 750 Z M 13.441406 28.117188 " fill-opacity="1" fill-rule="nonzero"/></g></g></svg>