<svg xmlns="http://www.w3.org/2000/svg" xmlns:xlink="http://www.w3.org/1999/xlink" width="1000" zoomAndPan="magnify" viewBox="0 0 750 749.999995" height="1000" preserveAspectRatio="xMidYMid meet" version="1.0"><defs><clipPath id="f3f876a3c4"><path d="M 6.179688 6.179688 L 743.820312 6.179688 L 743.820312 743.820312 L 6.179688 743.820312 Z M 6.179688 6.179688 " clip-rule="nonzero"/></clipPath><clipPath id="39cb72ff17"><path d="M 375 6.179688 L 446.59375 107.808594 L 559.410156 55.59375 L 570.597656 179.402344 L 694.40625 190.589844 L 642.1875 303.40625 L 743.820312 375 L 642.1875 446.59375 L 694.40625 559.410156 L 570.597656 570.597656 L 559.410156 694.40625 L 446.59375 642.1875 L 375 743.820312 L 303.40625 642.1875 L 190.589844 694.40625 L 179.402344 570.597656 L 55.59375 559.410156 L 107.808594 446.59375 L 6.179688 375 L 107.808594 303.40625 L 55.59375 190.589844 L 179.402344 179.402344 L 190.589844 55.59375 L 303.40625 107.808594 Z M 375 6.179688 " clip-rule="nonzero"/></clipPath></defs><g clip-path="url(#f3f876a3c4)"><g clip-path="url(#39cb72ff17)"><path fill="#000000" d="M 6.179688 6.179688 L 743.820312 6.179688 L 743.820312 743.820312 L 6.179688 743.820312 Z M 6.179688 6.179688 " fill-opacity="1" fill-rule="nonzero"/></g></g></svg>