<svg xmlns="http://www.w3.org/2000/svg" xmlns:xlink="http://www.w3.org/1999/xlink" width="1000" zoomAndPan="magnify" viewBox="0 0 750 749.999995" height="1000" preserveAspectRatio="xMidYMid meet" version="1.0"><defs><clipPath id="2d09600813"><path d="M 772.378906 416.023438 L 772.378906 506.238281 L 528.617188 750 L 438.402344 750 Z M 342.011719 750 L 432.222656 750 L 772.378906 409.84375 L 772.378906 319.628906 Z M 245.769531 750 L 335.984375 750 L 772.378906 313.449219 L 772.378906 223.238281 Z M 534.796875 750 L 625.011719 750 L 772.378906 602.628906 L 772.378906 512.414062 Z M 48.195312 -22.378906 L 0 -22.378906 L 0 25.816406 Z M 0 750 L 46.804688 750 L 772.378906 24.425781 L 772.378906 -22.378906 L 728.972656 -22.378906 L 0 706.59375 Z M 149.378906 750 L 239.4375 750 L 772.378906 217.058594 L 772.378906 127 Z M 772.378906 699.023438 L 772.378906 608.808594 L 631.1875 750 L 721.402344 750 Z M 0 513.804688 L 0 604.019531 L 626.398438 -22.378906 L 536.1875 -22.378906 Z M 52.984375 750 L 143.199219 750 L 772.378906 120.664062 L 772.378906 30.449219 Z M 0 31.996094 L 0 122.210938 L 144.589844 -22.378906 L 54.375 -22.378906 Z M 0 224.78125 L 0 314.996094 L 337.222656 -22.378906 L 247.160156 -22.378906 Z M 727.582031 750 L 772.378906 750 L 772.378906 705.203125 Z M 0 128.386719 L 0 218.601562 L 240.828125 -22.378906 L 150.769531 -22.378906 Z M 0 610.199219 L 0 700.414062 L 722.792969 -22.378906 L 632.578125 -22.378906 Z M 0 321.175781 L 0 411.386719 L 433.613281 -22.378906 L 343.398438 -22.378906 Z M 0 417.414062 L 0 507.628906 L 530.007812 -22.378906 L 439.792969 -22.378906 Z M 0 417.414062 " clip-rule="nonzero"/></clipPath></defs><g clip-path="url(#2d09600813)"><rect x="-75" width="900" fill="#000000" y="-74.999999" height="899.999994" fill-opacity="1"/></g></svg>