<svg xmlns="http://www.w3.org/2000/svg" xmlns:xlink="http://www.w3.org/1999/xlink" width="1920" zoomAndPan="magnify" viewBox="0 0 1440 809.999993" height="1080" preserveAspectRatio="xMidYMid meet" version="1.0"><defs><clipPath id="9766ea8666"><path d="M 115.054688 10.390625 L 1324 10.390625 L 1324 810 L 115.054688 810 Z M 115.054688 10.390625 " clip-rule="nonzero"/></clipPath><clipPath id="3b9ac3320a"><path d="M 720 10.390625 L 809.308594 96.53125 L 939.46875 37.621094 L 975.863281 139.355469 L 1129.296875 115.632812 L 1107.859375 219.226562 L 1263.84375 233.890625 L 1187.476562 325.347656 L 1324.945312 376.421875 L 1203.957031 443.394531 L 1304.34375 523.980469 L 1155.074219 557.421875 L 1204.828125 656.632812 L 1047.4375 652.023438 L 1039.828125 756.46875 L 895.574219 714.433594 L 831.636719 810 L 720 736.21875 L 608.363281 810 L 544.425781 714.433594 L 400.171875 756.46875 L 392.5625 652.023438 L 235.175781 656.632812 L 284.921875 557.421875 L 135.65625 523.980469 L 236.042969 443.394531 L 115.054688 376.421875 L 252.523438 325.347656 L 176.15625 233.890625 L 332.140625 219.226562 L 310.703125 115.632812 L 464.136719 139.355469 L 500.53125 37.621094 L 630.691406 96.53125 Z M 720 10.390625 " clip-rule="nonzero"/></clipPath></defs><g clip-path="url(#9766ea8666)"><g clip-path="url(#3b9ac3320a)"><path fill="#000000" d="M 115.054688 10.390625 L 1323.835938 10.390625 L 1323.835938 810 L 115.054688 810 Z M 115.054688 10.390625 " fill-opacity="1" fill-rule="nonzero"/></g></g></svg>