<svg xmlns="http://www.w3.org/2000/svg" xmlns:xlink="http://www.w3.org/1999/xlink" width="300" zoomAndPan="magnify" viewBox="0 0 224.87999 67.499998" height="90" preserveAspectRatio="xMidYMid meet" version="1.0"><defs><g/></defs><path fill="#000000" d="M 3.9375 33.5 L 34.34375 3.097656 L 64.746094 33.5 L 34.34375 63.902344 Z M 3.9375 33.5 " fill-opacity="1" fill-rule="nonzero"/><path fill="#ffffff" d="M 49.542969 33.5 C 49.542969 34.5 49.445312 35.488281 49.253906 36.464844 C 49.058594 37.445312 48.769531 38.394531 48.386719 39.316406 C 48.003906 40.238281 47.539062 41.117188 46.984375 41.945312 C 46.429688 42.777344 45.796875 43.542969 45.09375 44.25 C 44.386719 44.957031 43.617188 45.585938 42.789062 46.140625 C 41.957031 46.695312 41.082031 47.164062 40.160156 47.542969 C 39.238281 47.925781 38.289062 48.214844 37.308594 48.410156 C 36.328125 48.605469 35.339844 48.703125 34.34375 48.703125 C 33.34375 48.703125 32.355469 48.605469 31.378906 48.410156 C 30.398438 48.214844 29.449219 47.925781 28.523438 47.542969 C 27.601562 47.164062 26.726562 46.695312 25.898438 46.140625 C 25.066406 45.585938 24.300781 44.957031 23.59375 44.25 C 22.886719 43.542969 22.257812 42.777344 21.703125 41.945312 C 21.148438 41.117188 20.679688 40.238281 20.296875 39.316406 C 19.917969 38.394531 19.628906 37.445312 19.433594 36.464844 C 19.238281 35.488281 19.140625 34.5 19.140625 33.5 C 19.140625 32.503906 19.238281 31.511719 19.433594 30.535156 C 19.628906 29.554688 19.917969 28.605469 20.296875 27.683594 C 20.679688 26.761719 21.148438 25.882812 21.703125 25.054688 C 22.257812 24.222656 22.886719 23.457031 23.59375 22.75 C 24.300781 22.046875 25.066406 21.414062 25.898438 20.859375 C 26.726562 20.304688 27.601562 19.835938 28.523438 19.457031 C 29.449219 19.074219 30.398438 18.785156 31.378906 18.589844 C 32.355469 18.394531 33.34375 18.296875 34.34375 18.296875 C 35.339844 18.296875 36.328125 18.394531 37.308594 18.589844 C 38.289062 18.785156 39.238281 19.074219 40.160156 19.457031 C 41.082031 19.835938 41.957031 20.304688 42.789062 20.859375 C 43.617188 21.414062 44.386719 22.046875 45.09375 22.75 C 45.796875 23.457031 46.429688 24.222656 46.984375 25.054688 C 47.539062 25.882812 48.003906 26.761719 48.386719 27.683594 C 48.769531 28.605469 49.058594 29.554688 49.253906 30.535156 C 49.445312 31.511719 49.542969 32.503906 49.542969 33.5 Z M 49.542969 33.5 " fill-opacity="1" fill-rule="nonzero"/><path fill="#ef1fc8" d="M 41.945312 33.5 C 41.945312 34 41.894531 34.492188 41.796875 34.984375 C 41.699219 35.472656 41.554688 35.949219 41.363281 36.410156 C 41.175781 36.871094 40.941406 37.308594 40.664062 37.722656 C 40.386719 38.136719 40.070312 38.523438 39.71875 38.875 C 39.363281 39.226562 38.980469 39.542969 38.566406 39.820312 C 38.152344 40.097656 37.710938 40.332031 37.25 40.523438 C 36.789062 40.714844 36.316406 40.859375 35.824219 40.953125 C 35.335938 41.050781 34.84375 41.101562 34.34375 41.101562 C 33.84375 41.101562 33.347656 41.050781 32.859375 40.953125 C 32.371094 40.859375 31.894531 40.714844 31.433594 40.523438 C 30.972656 40.332031 30.535156 40.097656 30.121094 39.820312 C 29.703125 39.542969 29.320312 39.226562 28.96875 38.875 C 28.613281 38.523438 28.300781 38.136719 28.023438 37.722656 C 27.746094 37.308594 27.511719 36.871094 27.320312 36.410156 C 27.128906 35.949219 26.984375 35.472656 26.886719 34.984375 C 26.789062 34.492188 26.742188 34 26.742188 33.5 C 26.742188 33 26.789062 32.507812 26.886719 32.015625 C 26.984375 31.527344 27.128906 31.050781 27.320312 30.589844 C 27.511719 30.128906 27.746094 29.691406 28.023438 29.277344 C 28.300781 28.863281 28.613281 28.476562 28.96875 28.125 C 29.320312 27.773438 29.703125 27.457031 30.121094 27.179688 C 30.535156 26.902344 30.972656 26.667969 31.433594 26.476562 C 31.894531 26.285156 32.371094 26.144531 32.859375 26.046875 C 33.347656 25.949219 33.84375 25.898438 34.34375 25.898438 C 34.84375 25.898438 35.335938 25.949219 35.824219 26.046875 C 36.316406 26.144531 36.789062 26.285156 37.25 26.476562 C 37.710938 26.667969 38.152344 26.902344 38.566406 27.179688 C 38.980469 27.457031 39.363281 27.773438 39.71875 28.125 C 40.070312 28.476562 40.386719 28.863281 40.664062 29.277344 C 40.941406 29.691406 41.175781 30.128906 41.363281 30.589844 C 41.554688 31.050781 41.699219 31.527344 41.796875 32.015625 C 41.894531 32.507812 41.945312 33 41.945312 33.5 Z M 41.945312 33.5 " fill-opacity="1" fill-rule="nonzero"/><g fill="#000000" fill-opacity="1"><g transform="translate(71.671925, 41.951871)"><g><path d="M 6.359375 -19.15625 L 6.359375 0 L 1.6875 0 L 1.6875 -19.15625 Z M 6.359375 -19.15625 "/></g></g></g><g fill="#000000" fill-opacity="1"><g transform="translate(79.719846, 41.951871)"><g><path d="M 10.96875 -15.390625 C 12.75 -15.390625 14.171875 -14.8125 15.234375 -13.65625 C 16.304688 -12.5 16.84375 -10.914062 16.84375 -8.90625 L 16.84375 0 L 12.203125 0 L 12.203125 -8.265625 C 12.203125 -9.285156 11.9375 -10.078125 11.40625 -10.640625 C 10.882812 -11.203125 10.175781 -11.484375 9.28125 -11.484375 C 8.382812 -11.484375 7.671875 -11.203125 7.140625 -10.640625 C 6.617188 -10.078125 6.359375 -9.285156 6.359375 -8.265625 L 6.359375 0 L 1.6875 0 L 1.6875 -15.234375 L 6.359375 -15.234375 L 6.359375 -13.21875 C 6.828125 -13.882812 7.460938 -14.410156 8.265625 -14.796875 C 9.066406 -15.191406 9.96875 -15.390625 10.96875 -15.390625 Z M 10.96875 -15.390625 "/></g></g></g><g fill="#000000" fill-opacity="1"><g transform="translate(98.10731, 41.951871)"><g><path d="M 6.359375 -13.078125 C 6.816406 -13.785156 7.441406 -14.359375 8.234375 -14.796875 C 9.035156 -15.234375 9.976562 -15.453125 11.0625 -15.453125 C 12.3125 -15.453125 13.445312 -15.132812 14.46875 -14.5 C 15.488281 -13.863281 16.289062 -12.953125 16.875 -11.765625 C 17.46875 -10.578125 17.765625 -9.203125 17.765625 -7.640625 C 17.765625 -6.078125 17.46875 -4.695312 16.875 -3.5 C 16.289062 -2.3125 15.488281 -1.394531 14.46875 -0.75 C 13.445312 -0.101562 12.3125 0.21875 11.0625 0.21875 C 10 0.21875 9.0625 0 8.25 -0.4375 C 7.445312 -0.875 6.816406 -1.4375 6.359375 -2.125 L 6.359375 7.265625 L 1.6875 7.265625 L 1.6875 -15.234375 L 6.359375 -15.234375 Z M 13.015625 -7.640625 C 13.015625 -8.804688 12.691406 -9.71875 12.046875 -10.375 C 11.398438 -11.039062 10.601562 -11.375 9.65625 -11.375 C 8.726562 -11.375 7.941406 -11.035156 7.296875 -10.359375 C 6.648438 -9.691406 6.328125 -8.773438 6.328125 -7.609375 C 6.328125 -6.453125 6.648438 -5.535156 7.296875 -4.859375 C 7.941406 -4.179688 8.726562 -3.84375 9.65625 -3.84375 C 10.59375 -3.84375 11.382812 -4.179688 12.03125 -4.859375 C 12.6875 -5.546875 13.015625 -6.472656 13.015625 -7.640625 Z M 13.015625 -7.640625 "/></g></g></g><g fill="#000000" fill-opacity="1"><g transform="translate(116.631173, 41.951871)"><g><path d="M 16.734375 -15.234375 L 16.734375 0 L 12.0625 0 L 12.0625 -2.078125 C 11.59375 -1.398438 10.953125 -0.859375 10.140625 -0.453125 C 9.328125 -0.046875 8.429688 0.15625 7.453125 0.15625 C 6.285156 0.15625 5.253906 -0.0976562 4.359375 -0.609375 C 3.472656 -1.128906 2.785156 -1.878906 2.296875 -2.859375 C 1.804688 -3.847656 1.5625 -5.003906 1.5625 -6.328125 L 1.5625 -15.234375 L 6.203125 -15.234375 L 6.203125 -6.953125 C 6.203125 -5.941406 6.460938 -5.148438 6.984375 -4.578125 C 7.515625 -4.015625 8.222656 -3.734375 9.109375 -3.734375 C 10.023438 -3.734375 10.742188 -4.015625 11.265625 -4.578125 C 11.796875 -5.148438 12.0625 -5.941406 12.0625 -6.953125 L 12.0625 -15.234375 Z M 16.734375 -15.234375 "/></g></g></g><g fill="#000000" fill-opacity="1"><g transform="translate(135.018636, 41.951871)"><g><path d="M 15.484375 -19.15625 L 15.484375 -15.421875 L 10.40625 -15.421875 L 10.40625 0 L 5.734375 0 L 5.734375 -15.421875 L 0.65625 -15.421875 L 0.65625 -19.15625 Z M 15.484375 -19.15625 "/></g></g></g><g fill="#000000" fill-opacity="1"><g transform="translate(151.141765, 41.951871)"><g><path d="M 6.359375 -12.6875 C 6.898438 -13.53125 7.582031 -14.191406 8.40625 -14.671875 C 9.226562 -15.148438 10.140625 -15.390625 11.140625 -15.390625 L 11.140625 -10.453125 L 9.859375 -10.453125 C 8.691406 -10.453125 7.816406 -10.203125 7.234375 -9.703125 C 6.648438 -9.203125 6.359375 -8.320312 6.359375 -7.0625 L 6.359375 0 L 1.6875 0 L 1.6875 -15.234375 L 6.359375 -15.234375 Z M 6.359375 -12.6875 "/></g></g></g><g fill="#000000" fill-opacity="1"><g transform="translate(162.818082, 41.951871)"><g><path d="M 8.625 0.21875 C 7.132812 0.21875 5.789062 -0.0976562 4.59375 -0.734375 C 3.40625 -1.367188 2.46875 -2.273438 1.78125 -3.453125 C 1.101562 -4.640625 0.765625 -6.023438 0.765625 -7.609375 C 0.765625 -9.179688 1.109375 -10.5625 1.796875 -11.75 C 2.492188 -12.945312 3.441406 -13.863281 4.640625 -14.5 C 5.835938 -15.132812 7.1875 -15.453125 8.6875 -15.453125 C 10.175781 -15.453125 11.519531 -15.132812 12.71875 -14.5 C 13.914062 -13.863281 14.859375 -12.945312 15.546875 -11.75 C 16.242188 -10.5625 16.59375 -9.179688 16.59375 -7.609375 C 16.59375 -6.046875 16.242188 -4.664062 15.546875 -3.46875 C 14.847656 -2.28125 13.890625 -1.367188 12.671875 -0.734375 C 11.460938 -0.0976562 10.113281 0.21875 8.625 0.21875 Z M 8.625 -3.828125 C 9.519531 -3.828125 10.28125 -4.148438 10.90625 -4.796875 C 11.53125 -5.453125 11.84375 -6.390625 11.84375 -7.609375 C 11.84375 -8.828125 11.535156 -9.765625 10.921875 -10.421875 C 10.316406 -11.078125 9.570312 -11.40625 8.6875 -11.40625 C 7.769531 -11.40625 7.007812 -11.082031 6.40625 -10.4375 C 5.8125 -9.789062 5.515625 -8.847656 5.515625 -7.609375 C 5.515625 -6.390625 5.804688 -5.453125 6.390625 -4.796875 C 6.984375 -4.148438 7.726562 -3.828125 8.625 -3.828125 Z M 8.625 -3.828125 "/></g></g></g><g fill="#000000" fill-opacity="1"><g transform="translate(180.196143, 41.951871)"><g><path d="M 10.96875 -15.390625 C 12.75 -15.390625 14.171875 -14.8125 15.234375 -13.65625 C 16.304688 -12.5 16.84375 -10.914062 16.84375 -8.90625 L 16.84375 0 L 12.203125 0 L 12.203125 -8.265625 C 12.203125 -9.285156 11.9375 -10.078125 11.40625 -10.640625 C 10.882812 -11.203125 10.175781 -11.484375 9.28125 -11.484375 C 8.382812 -11.484375 7.671875 -11.203125 7.140625 -10.640625 C 6.617188 -10.078125 6.359375 -9.285156 6.359375 -8.265625 L 6.359375 0 L 1.6875 0 L 1.6875 -15.234375 L 6.359375 -15.234375 L 6.359375 -13.21875 C 6.828125 -13.882812 7.460938 -14.410156 8.265625 -14.796875 C 9.066406 -15.191406 9.96875 -15.390625 10.96875 -15.390625 Z M 10.96875 -15.390625 "/></g></g></g></svg>