<svg xmlns="http://www.w3.org/2000/svg" xmlns:xlink="http://www.w3.org/1999/xlink" width="300" zoomAndPan="magnify" viewBox="0 0 224.87999 67.499998" height="90" preserveAspectRatio="xMidYMid meet" version="1.0"><defs><g/></defs><path fill="#187b9d" d="M 4.046875 33.726562 L 34.570312 3.203125 L 65.09375 33.726562 L 34.570312 64.25 Z M 4.046875 33.726562 " fill-opacity="1" fill-rule="nonzero"/><path fill="#ffffff" d="M 49.832031 33.726562 C 49.832031 34.730469 49.734375 35.722656 49.539062 36.703125 C 49.34375 37.6875 49.054688 38.640625 48.671875 39.566406 C 48.285156 40.492188 47.816406 41.375 47.261719 42.207031 C 46.703125 43.039062 46.070312 43.8125 45.363281 44.519531 C 44.652344 45.226562 43.882812 45.859375 43.050781 46.417969 C 42.214844 46.972656 41.335938 47.445312 40.410156 47.828125 C 39.484375 48.210938 38.53125 48.5 37.546875 48.695312 C 36.566406 48.890625 35.570312 48.988281 34.570312 48.988281 C 33.566406 48.988281 32.574219 48.890625 31.59375 48.695312 C 30.609375 48.5 29.65625 48.210938 28.730469 47.828125 C 27.804688 47.445312 26.925781 46.972656 26.089844 46.417969 C 25.257812 45.859375 24.488281 45.226562 23.777344 44.519531 C 23.070312 43.8125 22.4375 43.039062 21.878906 42.207031 C 21.324219 41.375 20.851562 40.492188 20.46875 39.566406 C 20.085938 38.640625 19.796875 37.6875 19.601562 36.703125 C 19.40625 35.722656 19.308594 34.730469 19.308594 33.726562 C 19.308594 32.726562 19.40625 31.734375 19.601562 30.75 C 19.796875 29.765625 20.085938 28.8125 20.46875 27.886719 C 20.851562 26.960938 21.324219 26.082031 21.878906 25.25 C 22.4375 24.414062 23.070312 23.644531 23.777344 22.9375 C 24.488281 22.226562 25.257812 21.59375 26.089844 21.039062 C 26.925781 20.480469 27.804688 20.011719 28.730469 19.628906 C 29.65625 19.242188 30.609375 18.953125 31.59375 18.757812 C 32.574219 18.5625 33.566406 18.464844 34.570312 18.464844 C 35.570312 18.464844 36.566406 18.5625 37.546875 18.757812 C 38.53125 18.953125 39.484375 19.242188 40.410156 19.628906 C 41.335938 20.011719 42.214844 20.480469 43.050781 21.039062 C 43.882812 21.59375 44.652344 22.226562 45.363281 22.9375 C 46.070312 23.644531 46.703125 24.414062 47.261719 25.25 C 47.816406 26.082031 48.285156 26.960938 48.671875 27.886719 C 49.054688 28.8125 49.34375 29.765625 49.539062 30.75 C 49.734375 31.734375 49.832031 32.726562 49.832031 33.726562 Z M 49.832031 33.726562 " fill-opacity="1" fill-rule="nonzero"/><path fill="#ef1fc8" d="M 42.199219 33.726562 C 42.199219 34.226562 42.152344 34.726562 42.054688 35.214844 C 41.957031 35.707031 41.8125 36.183594 41.621094 36.648438 C 41.429688 37.109375 41.191406 37.550781 40.914062 37.96875 C 40.636719 38.382812 40.320312 38.769531 39.964844 39.125 C 39.613281 39.476562 39.226562 39.792969 38.808594 40.074219 C 38.394531 40.351562 37.953125 40.585938 37.492188 40.777344 C 37.027344 40.96875 36.550781 41.113281 36.058594 41.210938 C 35.566406 41.308594 35.070312 41.359375 34.570312 41.359375 C 34.070312 41.359375 33.574219 41.308594 33.082031 41.210938 C 32.589844 41.113281 32.113281 40.96875 31.648438 40.777344 C 31.1875 40.585938 30.746094 40.351562 30.332031 40.074219 C 29.914062 39.792969 29.527344 39.476562 29.175781 39.125 C 28.820312 38.769531 28.503906 38.382812 28.226562 37.96875 C 27.945312 37.550781 27.710938 37.109375 27.519531 36.648438 C 27.328125 36.183594 27.183594 35.707031 27.085938 35.214844 C 26.988281 34.726562 26.9375 34.226562 26.9375 33.726562 C 26.9375 33.226562 26.988281 32.730469 27.085938 32.238281 C 27.183594 31.746094 27.328125 31.269531 27.519531 30.808594 C 27.710938 30.34375 27.945312 29.90625 28.226562 29.488281 C 28.503906 29.070312 28.820312 28.6875 29.175781 28.332031 C 29.527344 27.976562 29.914062 27.660156 30.332031 27.382812 C 30.746094 27.105469 31.1875 26.867188 31.648438 26.675781 C 32.113281 26.484375 32.589844 26.339844 33.082031 26.242188 C 33.574219 26.144531 34.070312 26.097656 34.570312 26.097656 C 35.070312 26.097656 35.566406 26.144531 36.058594 26.242188 C 36.550781 26.339844 37.027344 26.484375 37.492188 26.675781 C 37.953125 26.867188 38.394531 27.105469 38.808594 27.382812 C 39.226562 27.660156 39.613281 27.976562 39.964844 28.332031 C 40.320312 28.6875 40.636719 29.070312 40.914062 29.488281 C 41.191406 29.90625 41.429688 30.34375 41.621094 30.808594 C 41.8125 31.269531 41.957031 31.746094 42.054688 32.238281 C 42.152344 32.730469 42.199219 33.226562 42.199219 33.726562 Z M 42.199219 33.726562 " fill-opacity="1" fill-rule="nonzero"/><g fill="#187b9d" fill-opacity="1"><g transform="translate(71.671925, 41.951886)"><g><path d="M 6.359375 -19.15625 L 6.359375 0 L 1.6875 0 L 1.6875 -19.15625 Z M 6.359375 -19.15625 "/></g></g></g><g fill="#187b9d" fill-opacity="1"><g transform="translate(79.719846, 41.951886)"><g><path d="M 10.96875 -15.390625 C 12.75 -15.390625 14.171875 -14.8125 15.234375 -13.65625 C 16.304688 -12.5 16.84375 -10.914062 16.84375 -8.90625 L 16.84375 0 L 12.203125 0 L 12.203125 -8.265625 C 12.203125 -9.285156 11.9375 -10.078125 11.40625 -10.640625 C 10.882812 -11.203125 10.175781 -11.484375 9.28125 -11.484375 C 8.382812 -11.484375 7.671875 -11.203125 7.140625 -10.640625 C 6.617188 -10.078125 6.359375 -9.285156 6.359375 -8.265625 L 6.359375 0 L 1.6875 0 L 1.6875 -15.234375 L 6.359375 -15.234375 L 6.359375 -13.21875 C 6.828125 -13.882812 7.460938 -14.410156 8.265625 -14.796875 C 9.066406 -15.191406 9.96875 -15.390625 10.96875 -15.390625 Z M 10.96875 -15.390625 "/></g></g></g><g fill="#187b9d" fill-opacity="1"><g transform="translate(98.10731, 41.951886)"><g><path d="M 6.359375 -13.078125 C 6.816406 -13.785156 7.441406 -14.359375 8.234375 -14.796875 C 9.035156 -15.234375 9.976562 -15.453125 11.0625 -15.453125 C 12.3125 -15.453125 13.445312 -15.132812 14.46875 -14.5 C 15.488281 -13.863281 16.289062 -12.953125 16.875 -11.765625 C 17.46875 -10.578125 17.765625 -9.203125 17.765625 -7.640625 C 17.765625 -6.078125 17.46875 -4.695312 16.875 -3.5 C 16.289062 -2.3125 15.488281 -1.394531 14.46875 -0.75 C 13.445312 -0.101562 12.3125 0.21875 11.0625 0.21875 C 10 0.21875 9.0625 0 8.25 -0.4375 C 7.445312 -0.875 6.816406 -1.4375 6.359375 -2.125 L 6.359375 7.265625 L 1.6875 7.265625 L 1.6875 -15.234375 L 6.359375 -15.234375 Z M 13.015625 -7.640625 C 13.015625 -8.804688 12.691406 -9.71875 12.046875 -10.375 C 11.398438 -11.039062 10.601562 -11.375 9.65625 -11.375 C 8.726562 -11.375 7.941406 -11.035156 7.296875 -10.359375 C 6.648438 -9.691406 6.328125 -8.773438 6.328125 -7.609375 C 6.328125 -6.453125 6.648438 -5.535156 7.296875 -4.859375 C 7.941406 -4.179688 8.726562 -3.84375 9.65625 -3.84375 C 10.59375 -3.84375 11.382812 -4.179688 12.03125 -4.859375 C 12.6875 -5.546875 13.015625 -6.472656 13.015625 -7.640625 Z M 13.015625 -7.640625 "/></g></g></g><g fill="#187b9d" fill-opacity="1"><g transform="translate(116.631173, 41.951886)"><g><path d="M 16.734375 -15.234375 L 16.734375 0 L 12.0625 0 L 12.0625 -2.078125 C 11.59375 -1.398438 10.953125 -0.859375 10.140625 -0.453125 C 9.328125 -0.046875 8.429688 0.15625 7.453125 0.15625 C 6.285156 0.15625 5.253906 -0.0976562 4.359375 -0.609375 C 3.472656 -1.128906 2.785156 -1.878906 2.296875 -2.859375 C 1.804688 -3.847656 1.5625 -5.003906 1.5625 -6.328125 L 1.5625 -15.234375 L 6.203125 -15.234375 L 6.203125 -6.953125 C 6.203125 -5.941406 6.460938 -5.148438 6.984375 -4.578125 C 7.515625 -4.015625 8.222656 -3.734375 9.109375 -3.734375 C 10.023438 -3.734375 10.742188 -4.015625 11.265625 -4.578125 C 11.796875 -5.148438 12.0625 -5.941406 12.0625 -6.953125 L 12.0625 -15.234375 Z M 16.734375 -15.234375 "/></g></g></g><g fill="#187b9d" fill-opacity="1"><g transform="translate(135.018636, 41.951886)"><g><path d="M 15.484375 -19.15625 L 15.484375 -15.421875 L 10.40625 -15.421875 L 10.40625 0 L 5.734375 0 L 5.734375 -15.421875 L 0.65625 -15.421875 L 0.65625 -19.15625 Z M 15.484375 -19.15625 "/></g></g></g><g fill="#187b9d" fill-opacity="1"><g transform="translate(151.141765, 41.951886)"><g><path d="M 6.359375 -12.6875 C 6.898438 -13.53125 7.582031 -14.191406 8.40625 -14.671875 C 9.226562 -15.148438 10.140625 -15.390625 11.140625 -15.390625 L 11.140625 -10.453125 L 9.859375 -10.453125 C 8.691406 -10.453125 7.816406 -10.203125 7.234375 -9.703125 C 6.648438 -9.203125 6.359375 -8.320312 6.359375 -7.0625 L 6.359375 0 L 1.6875 0 L 1.6875 -15.234375 L 6.359375 -15.234375 Z M 6.359375 -12.6875 "/></g></g></g><g fill="#187b9d" fill-opacity="1"><g transform="translate(162.818082, 41.951886)"><g><path d="M 8.625 0.21875 C 7.132812 0.21875 5.789062 -0.0976562 4.59375 -0.734375 C 3.40625 -1.367188 2.46875 -2.273438 1.78125 -3.453125 C 1.101562 -4.640625 0.765625 -6.023438 0.765625 -7.609375 C 0.765625 -9.179688 1.109375 -10.5625 1.796875 -11.75 C 2.492188 -12.945312 3.441406 -13.863281 4.640625 -14.5 C 5.835938 -15.132812 7.1875 -15.453125 8.6875 -15.453125 C 10.175781 -15.453125 11.519531 -15.132812 12.71875 -14.5 C 13.914062 -13.863281 14.859375 -12.945312 15.546875 -11.75 C 16.242188 -10.5625 16.59375 -9.179688 16.59375 -7.609375 C 16.59375 -6.046875 16.242188 -4.664062 15.546875 -3.46875 C 14.847656 -2.28125 13.890625 -1.367188 12.671875 -0.734375 C 11.460938 -0.0976562 10.113281 0.21875 8.625 0.21875 Z M 8.625 -3.828125 C 9.519531 -3.828125 10.28125 -4.148438 10.90625 -4.796875 C 11.53125 -5.453125 11.84375 -6.390625 11.84375 -7.609375 C 11.84375 -8.828125 11.535156 -9.765625 10.921875 -10.421875 C 10.316406 -11.078125 9.570312 -11.40625 8.6875 -11.40625 C 7.769531 -11.40625 7.007812 -11.082031 6.40625 -10.4375 C 5.8125 -9.789062 5.515625 -8.847656 5.515625 -7.609375 C 5.515625 -6.390625 5.804688 -5.453125 6.390625 -4.796875 C 6.984375 -4.148438 7.726562 -3.828125 8.625 -3.828125 Z M 8.625 -3.828125 "/></g></g></g><g fill="#187b9d" fill-opacity="1"><g transform="translate(180.196143, 41.951886)"><g><path d="M 10.96875 -15.390625 C 12.75 -15.390625 14.171875 -14.8125 15.234375 -13.65625 C 16.304688 -12.5 16.84375 -10.914062 16.84375 -8.90625 L 16.84375 0 L 12.203125 0 L 12.203125 -8.265625 C 12.203125 -9.285156 11.9375 -10.078125 11.40625 -10.640625 C 10.882812 -11.203125 10.175781 -11.484375 9.28125 -11.484375 C 8.382812 -11.484375 7.671875 -11.203125 7.140625 -10.640625 C 6.617188 -10.078125 6.359375 -9.285156 6.359375 -8.265625 L 6.359375 0 L 1.6875 0 L 1.6875 -15.234375 L 6.359375 -15.234375 L 6.359375 -13.21875 C 6.828125 -13.882812 7.460938 -14.410156 8.265625 -14.796875 C 9.066406 -15.191406 9.96875 -15.390625 10.96875 -15.390625 Z M 10.96875 -15.390625 "/></g></g></g></svg>